<svg width="800" height="400" viewBox="0 0 800 400" xmlns="http://www.w3.org/2000/svg"><mask id="satori_om-id"><rect x="0" y="0" width="800" height="400" fill="#fff"/></mask><rect x="0" y="0" width="800" height="400" fill="#fff"/><clipPath id="satori_cp-id-0"><rect x="300" y="76" width="200" height="200"/></clipPath><mask id="satori_om-id-0"><rect x="300" y="76" width="200" height="200" fill="#fff"/></mask><image x="300" y="76" width="200" height="200" href="data:image/svg+xml;utf8,%3Csvg  fill=%22%23000%22 xmlns=%22http://www.w3.org/2000/svg%22 width=%22NaN%22 height=%22null%22 viewBox=%220 0 500 500%22%3E%3Cpath d=%22m385.42 326.45c7.5002 11.979 14.799 23.656 22.202 35.5-8.1935 5.0413-16.606 4.262-24.579 4.2893-37.649 0.12912-75.301-0.41928-112.95-0.33032-23.302 0.055023-46.602 0.98456-69.905 1.2102-18.151 0.17575-36.306-0.15396-54.46-0.21256-14.984-0.04837-29.969 0.065522-44.951-0.081878-6.7307-0.066223-7.8922-1.4271-4.9177-7.4055 6.1438-12.349 12.832-24.436 19.572-36.476 6.175-11.03 12.936-21.733 19.035-32.803 7.134-12.949 13.653-26.236 20.755-39.204 13.59-24.818 27.295-49.574 41.159-74.24 10.441-18.576 21.402-36.862 31.75-55.488 6.0504-10.891 11.318-22.216 17.019-33.303 1.1251-2.1883 2.622-4.1855 4.8904-7.7543 5.7382 9.557 11.258 17.968 16.005 26.795 18.521 34.436 36.581 69.122 55.249 103.48 10.482 19.291 22.071 37.979 32.702 57.193 10.704 19.346 20.84 39.008 31.426 58.833m-147.65-196.09c-6.8811 12.731-13.765 25.46-20.643 38.193-26.635 49.31-53.288 98.611-79.886 147.94-5.3618 9.9441-10.83 19.852-15.653 30.058-3.1228 6.6081-2.2816 7.4296 4.9122 7.4871 25.804 0.20612 51.609 0.60953 77.412 0.4834 25.964-0.12695 51.924-1.0068 77.888-1.1692 26.313-0.16449 52.629 0.23712 78.943 0.1875 7.2331-0.013611 14.465-0.75507 22.485-1.2069-1.2543-2.8544-1.9446-4.8765-2.9768-6.7055-12.26-21.723-24.719-43.336-36.793-65.161-4.5791-8.277-7.9431-17.224-12.489-25.522-11.912-21.741-24.535-43.098-36.183-64.977-10.707-20.111-20.396-40.762-30.776-61.05-3.9071-7.6365-8.4975-14.923-12.776-22.37-0.55866 0.038421-1.1173 0.076835-1.6759 0.11526-3.8183 7.6772-7.6366 15.354-11.787 23.696z%22%3E%3C/path%3E%3Cpath d=%22m225.1 291.91c-1.6356-3.1e-5 -2.8994 0.28671-3.9451-0.068634-1.493-0.50739-3.5675-1.1808-4.0422-2.3378-0.60886-1.484-0.52339-3.9944 0.38878-5.2343 4.2394-5.7626 9.1434-11.044 13.267-16.881 3.1425-4.4477 6.4169-6.9789 12.279-4.0055v21.656c2.279 0.15097 4.193 0.27777 6.0605 0.40149 1.3418 5.7549 1.0544 6.1013-5.3554 6.7429-3.8485 4.8808 4.2317 4.6031 3.5826 8.5007h-20.87c0.3517-4.5121 8.8479-2.2303 6.2637-8.7733h-7.6303m3.7686-6.0166c1.3887-0.10904 2.7774-0.21808 3.7849-0.29718v-11.418c-2.9601 4.3854-5.2821 7.8253-7.9156 11.727 1.6734 0 2.4826 0 4.1308-0.012238z%22%3E%3C/path%3E%3Cpath d=%22m279.98 285.16c2.0652 0.14368 3.6948 0.14368 5.3178 0.14368 1.7896 5.8358-1.0354 7.2611-5.957 6.5522v4.3891c1.4268 1.0446 2.9593 2.1665 4.4917 3.2884-0.23108 0.36005-0.46219 0.72012-0.69327 1.0802h-20.718c0.54193-4.3939 8.8558-2.2182 6.2835-8.7031-3.8832 0-7.8742 0.17319-11.835-0.096772-1.3314-0.090728-3.3237-1.0383-3.7032-2.0744-0.57408-1.5672-0.6989-4.0794 0.20068-5.2777 5.2959-7.0544 10.67-14.098 16.655-20.555 1.615-1.7427 5.4395-1.4379 9.5222-2.3605 0 8.6894 0 16.08 0.43567 23.615m-10.962-2.7256v-7.1547c-0.32431-0.064179-0.64862-0.12836-0.97296-0.19254-2.3341 3.451-4.6682 6.902-7.0024 10.353 2.9108-0.79971 6.9207 3.0047 7.9753-3.0058z%22%3E%3C/path%3E%3C/svg%3E" preserveAspectRatio="none" clip-path="url(#satori_cp-id-0)" mask="url(#satori_om-id-0)"/><mask id="satori_om-id-0-0"><rect x="300" y="76" width="0" height="200" fill="#fff"/></mask><mask id="satori_om-id-0-1"><rect x="300" y="76" width="0" height="200" fill="#fff"/></mask><mask id="satori_om-id-0-2"><rect x="300" y="76" width="0" height="200" fill="#fff"/></mask><mask id="satori_om-id-1"><rect x="266" y="276" width="269" height="48" fill="#fff"/></mask><path fill="black" d="M280.8 291.0L273.5 313.4L267.0 313.4L277.0 284.3L284.9 284.3L294.9 313.4L288.4 313.4L281.1 291.0L280.8 291.0ZM273.1 306.8L273.1 302.0L288.7 302.0L288.7 306.8L273.1 306.8ZM316.0 297.8L316.0 297.8L310.4 298.2Q310.3 297.5 309.8 296.9Q309.4 296.3 308.6 296.0Q307.8 295.6 306.8 295.6L306.8 295.6Q305.4 295.6 304.4 296.2Q303.4 296.8 303.4 297.8L303.4 297.8Q303.4 298.6 304.1 299.1Q304.7 299.6 306.2 300.0L306.2 300.0L310.2 300.8Q313.3 301.4 314.9 302.9Q316.5 304.3 316.5 306.7L316.5 306.7Q316.5 308.8 315.2 310.4Q314.0 312.1 311.8 313.0Q309.6 313.9 306.8 313.9L306.8 313.9Q302.4 313.9 299.9 312.1Q297.3 310.2 296.9 307.1L296.9 307.1L302.8 306.8Q303.1 308.1 304.1 308.8Q305.1 309.5 306.8 309.5L306.8 309.5Q308.4 309.5 309.3 308.9Q310.3 308.3 310.3 307.3L310.3 307.3Q310.3 306.5 309.6 305.9Q308.9 305.4 307.5 305.1L307.5 305.1L303.7 304.4Q300.5 303.7 299.0 302.1Q297.4 300.6 297.4 298.1L297.4 298.1Q297.4 296.0 298.6 294.5Q299.7 293.0 301.8 292.2Q303.9 291.3 306.7 291.3L306.7 291.3Q310.8 291.3 313.2 293.1Q315.6 294.8 316.0 297.8ZM318.8 291.6L331.9 291.6L331.9 296.2L318.8 296.2L318.8 291.6ZM321.7 307.5L321.7 286.4L327.8 286.4L327.8 306.7Q327.8 307.6 328.0 308.0Q328.3 308.5 328.8 308.7Q329.2 308.9 329.8 308.9L329.8 308.9Q330.3 308.9 330.7 308.8Q331.1 308.7 331.3 308.7L331.3 308.7L332.3 313.2Q331.8 313.3 331.0 313.5Q330.2 313.7 329.0 313.7L329.0 313.7Q326.8 313.8 325.2 313.2Q323.5 312.5 322.6 311.1Q321.7 309.7 321.7 307.5L321.7 307.5ZM341.9 313.4L335.8 313.4L335.8 291.6L341.7 291.6L341.7 295.4L341.9 295.4Q342.5 293.4 343.9 292.4Q345.3 291.3 347.2 291.3L347.2 291.3Q347.6 291.3 348.1 291.4Q348.7 291.4 349.1 291.5L349.1 291.5L349.1 296.9Q348.6 296.8 347.9 296.7Q347.1 296.6 346.5 296.6L346.5 296.6Q345.2 296.6 344.1 297.1Q343.1 297.7 342.5 298.7Q341.9 299.8 341.9 301.1L341.9 301.1L341.9 313.4ZM361.0 313.9L361.0 313.9Q357.7 313.9 355.3 312.5Q352.9 311.0 351.6 308.5Q350.3 306.0 350.3 302.6L350.3 302.6Q350.3 299.2 351.6 296.7Q352.9 294.2 355.3 292.8Q357.7 291.3 361.0 291.3L361.0 291.3Q364.3 291.3 366.7 292.8Q369.1 294.2 370.4 296.7Q371.8 299.2 371.8 302.6L371.8 302.6Q371.8 306.0 370.4 308.5Q369.1 311.0 366.7 312.5Q364.3 313.9 361.0 313.9ZM361.0 309.2L361.0 309.2Q362.5 309.2 363.6 308.3Q364.6 307.5 365.1 306.0Q365.6 304.5 365.6 302.6L365.6 302.6Q365.6 300.7 365.1 299.2Q364.6 297.7 363.6 296.8Q362.5 296.0 361.0 296.0L361.0 296.0Q359.5 296.0 358.5 296.8Q357.5 297.7 356.9 299.2Q356.4 300.7 356.4 302.6L356.4 302.6Q356.4 304.5 356.9 306.0Q357.5 307.5 358.5 308.3Q359.5 309.2 361.0 309.2Z M406.3 313.4L386.6 313.4L386.6 284.3L406.2 284.3L406.2 289.4L392.8 289.4L392.8 296.4L405.2 296.4L405.2 301.4L392.8 301.4L392.8 308.4L406.3 308.4L406.3 313.4ZM424.9 291.6L431.4 291.6L423.7 313.4L416.9 313.4L409.3 291.6L415.7 291.6L420.2 307.2L420.4 307.2L424.9 291.6ZM443.7 313.9L443.7 313.9Q440.3 313.9 437.9 312.5Q435.5 311.1 434.2 308.6Q432.8 306.1 432.8 302.6L432.8 302.6Q432.8 299.3 434.2 296.7Q435.5 294.2 437.8 292.8Q440.2 291.3 443.4 291.3L443.4 291.3Q445.6 291.3 447.5 292.0Q449.3 292.7 450.7 294.1Q452.1 295.5 452.9 297.6Q453.7 299.6 453.7 302.4L453.7 302.4L453.7 304.1L435.3 304.1L435.3 300.3L448.0 300.3Q448.0 299.0 447.4 298.0Q446.9 297.0 445.9 296.4Q444.8 295.9 443.5 295.9L443.5 295.9Q442.2 295.9 441.1 296.5Q440.0 297.1 439.4 298.2Q438.8 299.2 438.8 300.5L438.8 300.5L438.8 304.1Q438.8 305.7 439.4 306.9Q440.0 308.1 441.1 308.7Q442.3 309.3 443.8 309.3L443.8 309.3Q444.8 309.3 445.6 309.1Q446.5 308.8 447.1 308.2Q447.6 307.6 448.0 306.8L448.0 306.8L453.6 307.2Q453.1 309.2 451.8 310.7Q450.5 312.2 448.4 313.0Q446.4 313.9 443.7 313.9ZM463.7 313.4L457.6 313.4L457.6 291.6L463.5 291.6L463.5 295.4L463.7 295.4Q464.3 293.4 465.7 292.4Q467.1 291.3 469.0 291.3L469.0 291.3Q469.4 291.3 469.9 291.4Q470.5 291.4 470.9 291.5L470.9 291.5L470.9 296.9Q470.4 296.8 469.7 296.7Q468.9 296.6 468.3 296.6L468.3 296.6Q467.0 296.6 465.9 297.1Q464.9 297.7 464.3 298.7Q463.7 299.8 463.7 301.1L463.7 301.1L463.7 313.4ZM482.9 313.9L482.9 313.9Q479.5 313.9 477.1 312.5Q474.7 311.1 473.4 308.6Q472.1 306.1 472.1 302.6L472.1 302.6Q472.1 299.3 473.4 296.7Q474.7 294.2 477.1 292.8Q479.5 291.3 482.7 291.3L482.7 291.3Q484.8 291.3 486.7 292.0Q488.6 292.7 490.0 294.1Q491.4 295.5 492.1 297.6Q492.9 299.6 492.9 302.4L492.9 302.4L492.9 304.1L474.5 304.1L474.5 300.3L487.2 300.3Q487.2 299.0 486.7 298.0Q486.1 297.0 485.1 296.4Q484.1 295.9 482.8 295.9L482.8 295.9Q481.4 295.9 480.3 296.5Q479.3 297.1 478.7 298.2Q478.1 299.2 478.1 300.5L478.1 300.5L478.1 304.1Q478.1 305.7 478.7 306.9Q479.3 308.1 480.4 308.7Q481.5 309.3 483.0 309.3L483.0 309.3Q484.0 309.3 484.8 309.1Q485.7 308.8 486.3 308.2Q486.9 307.6 487.2 306.8L487.2 306.8L492.8 307.2Q492.4 309.2 491.0 310.7Q489.7 312.2 487.7 313.0Q485.6 313.9 482.9 313.9ZM515.0 297.8L515.0 297.8L509.5 298.2Q509.3 297.5 508.9 296.9Q508.4 296.3 507.6 296.0Q506.9 295.6 505.8 295.6L505.8 295.6Q504.4 295.6 503.5 296.2Q502.5 296.8 502.5 297.8L502.5 297.8Q502.5 298.6 503.1 299.1Q503.7 299.6 505.3 300.0L505.3 300.0L509.2 300.8Q512.4 301.4 514.0 302.9Q515.5 304.3 515.5 306.7L515.5 306.7Q515.5 308.8 514.3 310.4Q513.0 312.1 510.8 313.0Q508.6 313.9 505.8 313.9L505.8 313.9Q501.5 313.9 498.9 312.1Q496.3 310.2 495.9 307.1L495.9 307.1L501.9 306.8Q502.1 308.1 503.2 308.8Q504.2 309.5 505.8 309.5L505.8 309.5Q507.4 309.5 508.4 308.9Q509.4 308.3 509.4 307.3L509.4 307.3Q509.4 306.5 508.7 305.9Q508.0 305.4 506.6 305.1L506.6 305.1L502.8 304.4Q499.6 303.7 498.0 302.1Q496.5 300.6 496.5 298.1L496.5 298.1Q496.5 296.0 497.6 294.5Q498.8 293.0 500.9 292.2Q502.9 291.3 505.7 291.3L505.7 291.3Q509.9 291.3 512.2 293.1Q514.6 294.8 515.0 297.8ZM517.8 291.6L530.9 291.6L530.9 296.2L517.8 296.2L517.8 291.6ZM520.8 307.5L520.8 286.4L526.8 286.4L526.8 306.7Q526.8 307.6 527.1 308.0Q527.3 308.5 527.8 308.7Q528.3 308.9 528.9 308.9L528.9 308.9Q529.3 308.9 529.7 308.8Q530.2 308.7 530.4 308.7L530.4 308.7L531.3 313.2Q530.9 313.3 530.1 313.5Q529.2 313.7 528.1 313.7L528.1 313.7Q525.9 313.8 524.2 313.2Q522.6 312.5 521.7 311.1Q520.8 309.7 520.8 307.5L520.8 307.5Z "/></svg>